<svg xmlns="http://www.w3.org/2000/svg" xmlns:xlink="http://www.w3.org/1999/xlink" contentStyleType="text/css" data-diagram-type="DESCRIPTION" height="653px" preserveAspectRatio="none" style="width:1665px;height:653px;background:#FFFFFF;" version="1.1" viewBox="0 0 1665 653" width="1665px" zoomAndPan="magnify"><title>Advanced Driver-Assistance Systems</title><defs/><g><g class="title" data-source-line="12"><text fill="#000000" font-family="sans-serif" font-size="14" font-weight="bold" lengthAdjust="spacing" textLength="292.8037" x="679.2781" y="22.9951">Advanced Driver-Assistance Systems</text></g><!--cluster SENS--><g class="cluster" data-qualified-name="SENS" data-source-line="31" id="ent0010"><rect fill="#FFF9C4" height="87.3" rx="10" ry="10" style="stroke:#0D47A1;stroke-width:1;" width="675" x="334.36" y="241.1869"/><text fill="#000000" font-family="sans-serif" font-size="14" font-weight="bold" lengthAdjust="spacing" textLength="62.7334" x="640.4933" y="256.182">Sensors</text></g><!--cluster MOTORS--><g class="cluster" data-qualified-name="MOTORS" data-source-line="49" id="ent0022"><rect fill="#D1C4E9" height="87.3" rx="10" ry="10" style="stroke:#0D47A1;stroke-width:1;" width="322" x="1337.36" y="560.2969"/><text fill="#000000" font-family="sans-serif" font-size="14" font-weight="bold" lengthAdjust="spacing" textLength="55.0977" x="1470.8112" y="575.292">Motors</text></g><!--entity MCU--><g class="entity" data-qualified-name="MCU" data-source-line="19" id="ent0005"><rect fill="#F4FBFF" height="52.5938" rx="10" ry="10" style="stroke:#0D47A1;stroke-width:0.5;" width="137.9678" x="760.38" y="444.1669"/><text fill="#000000" font-family="sans-serif" font-size="14" lengthAdjust="spacing" textLength="113.6953" x="770.38" y="467.162">Arduino UNO R3</text><text fill="#000000" font-family="sans-serif" font-size="14" lengthAdjust="spacing" textLength="117.9678" x="770.38" y="483.4589">(Main Controller)</text></g><!--entity ULTRA--><g class="entity" data-qualified-name="SENS.ULTRA" data-source-line="32" id="ent0011"><rect fill="#F4FBFF" height="36.2969" rx="10" ry="10" style="stroke:#0D47A1;stroke-width:0.5;" width="156.5137" x="350.1" y="276.1869"/><text fill="#000000" font-family="sans-serif" font-size="14" lengthAdjust="spacing" textLength="136.5137" x="360.1" y="299.182">Ultrasonic HC-SR04</text></g><!--entity LDR--><g class="entity" data-qualified-name="SENS.LDR" data-source-line="33" id="ent0012"><rect fill="#F4FBFF" height="36.2969" rx="10" ry="10" style="stroke:#0D47A1;stroke-width:0.5;" width="103.665" x="541.53" y="276.1869"/><text fill="#000000" font-family="sans-serif" font-size="14" lengthAdjust="spacing" textLength="83.665" x="551.53" y="299.182">LDR Module</text></g><!--entity BELT--><g class="entity" data-qualified-name="SENS.BELT" data-source-line="34" id="ent0013"><rect fill="#F4FBFF" height="36.2969" rx="10" ry="10" style="stroke:#0D47A1;stroke-width:0.5;" width="136.0537" x="680.33" y="276.1869"/><text fill="#000000" font-family="sans-serif" font-size="14" lengthAdjust="spacing" textLength="116.0537" x="690.33" y="299.182">Seat Belt Sensor</text></g><!--entity DOOR--><g class="entity" data-qualified-name="SENS.DOOR" data-source-line="35" id="ent0014"><rect fill="#F4FBFF" height="36.2969" rx="10" ry="10" style="stroke:#0D47A1;stroke-width:0.5;" width="142.7256" x="851" y="276.1869"/><text fill="#000000" font-family="sans-serif" font-size="14" lengthAdjust="spacing" textLength="122.7256" x="861" y="299.182">Door Lock Sensor</text></g><!--entity ML--><g class="entity" data-qualified-name="MOTORS.ML" data-source-line="50" id="ent0023"><rect fill="#F4FBFF" height="36.2969" rx="10" ry="10" style="stroke:#0D47A1;stroke-width:0.5;" width="122.8535" x="1352.93" y="595.2969"/><text fill="#000000" font-family="sans-serif" font-size="14" lengthAdjust="spacing" textLength="102.8535" x="1362.93" y="618.292">Left Motor Pair</text></g><!--entity MR--><g class="entity" data-qualified-name="MOTORS.MR" data-source-line="51" id="ent0024"><rect fill="#F4FBFF" height="36.2969" rx="10" ry="10" style="stroke:#0D47A1;stroke-width:0.5;" width="132.8887" x="1510.91" y="595.2969"/><text fill="#000000" font-family="sans-serif" font-size="14" lengthAdjust="spacing" textLength="112.8887" x="1520.91" y="618.292">Right Motor Pair</text></g><!--entity BATT--><g class="entity" data-qualified-name="BATT" data-source-line="14" id="ent0002"><rect fill="#FFE0E0" height="52.5938" rx="10" ry="10" style="stroke:#0D47A1;stroke-width:0.5;" width="142.3018" x="1113.21" y="44.2969"/><text fill="#000000" font-family="sans-serif" font-size="14" lengthAdjust="spacing" textLength="89.0928" x="1123.21" y="67.292">Battery Pack</text><text fill="#000000" font-family="sans-serif" font-size="14" lengthAdjust="spacing" textLength="122.3018" x="1123.21" y="83.5889">4x 18650 (14.8V)</text></g><!--entity PWR--><g class="entity" data-qualified-name="PWR" data-source-line="15" id="ent0003"><rect fill="#F8BBD0" height="36.2969" rx="10" ry="10" style="stroke:#0D47A1;stroke-width:0.5;" width="148.9531" x="1109.88" y="157.8969"/><text fill="#000000" font-family="sans-serif" font-size="14" lengthAdjust="spacing" textLength="128.9531" x="1119.88" y="180.892">Power Distribution</text></g><!--entity BT--><g class="entity" data-qualified-name="BT" data-source-line="23" id="ent0006"><rect fill="#E3F2FD" height="52.5938" rx="10" ry="10" style="stroke:#0D47A1;stroke-width:0.5;" width="143.3203" x="1233.7" y="268.0469"/><text fill="#000000" font-family="sans-serif" font-size="14" lengthAdjust="spacing" textLength="123.3203" x="1243.7" y="291.042">Bluetooth Module</text><text fill="#000000" font-family="sans-serif" font-size="14" lengthAdjust="spacing" textLength="43.1689" x="1243.7" y="307.3389">HC-05</text></g><!--entity LCD--><g class="entity" data-qualified-name="LCD" data-source-line="27" id="ent0008"><rect fill="#E8F5E9" height="36.2969" rx="10" ry="10" style="stroke:#0D47A1;stroke-width:0.5;" width="125.998" x="11.36" y="276.1869"/><text fill="#000000" font-family="sans-serif" font-size="14" lengthAdjust="spacing" textLength="105.998" x="21.36" y="299.182">16x2 LCD (I2C)</text></g><!--entity HEAD--><g class="entity" data-qualified-name="HEAD" data-source-line="44" id="ent0019"><rect fill="#FFECB3" height="52.5938" rx="10" ry="10" style="stroke:#0D47A1;stroke-width:0.5;" width="94.9287" x="1103.89" y="268.0469"/><text fill="#000000" font-family="sans-serif" font-size="14" lengthAdjust="spacing" textLength="74.9287" x="1113.89" y="291.042">Headlights</text><text fill="#000000" font-family="sans-serif" font-size="14" lengthAdjust="spacing" textLength="27.4258" x="1113.89" y="307.3389">LED</text></g><!--entity DRIVER--><g class="entity" data-qualified-name="DRIVER" data-source-line="48" id="ent0021"><rect fill="#E1F5FE" height="52.5938" rx="10" ry="10" style="stroke:#0D47A1;stroke-width:0.5;" width="163.4932" x="1429.61" y="444.1669"/><text fill="#000000" font-family="sans-serif" font-size="14" lengthAdjust="spacing" textLength="87.9854" x="1439.61" y="467.162">Motor Driver</text><text fill="#000000" font-family="sans-serif" font-size="14" lengthAdjust="spacing" textLength="143.4932" x="1439.61" y="483.4589">L298N Dual Channel</text></g><!--entity DIP--><g class="entity" data-qualified-name="DIP" data-source-line="66" id="ent0032"><rect fill="#F3E5F5" height="36.2969" rx="10" ry="10" style="stroke:#0D47A1;stroke-width:0.5;" width="142.6025" x="172.06" y="276.1869"/><text fill="#000000" font-family="sans-serif" font-size="14" lengthAdjust="spacing" textLength="122.6025" x="182.06" y="299.182">DIP Switch 8 Way</text></g><g class="entity" data-qualified-name="GMN34" data-source-line="72" id="ent0035"><path d="M1218.08,427.6369 L1218.08,513.3009 L1394.6293,513.3009 L1394.6293,437.6369 L1384.6293,427.6369 L1218.08,427.6369" fill="#FFFDE7" style="stroke:#F57F17;stroke-width:0.5;"/><path d="M1384.6293,427.6369 L1384.6293,437.6369 L1394.6293,437.6369 L1384.6293,427.6369" fill="#FFFDE7" style="stroke:#F57F17;stroke-width:1;"/><text fill="#000000" font-family="sans-serif" font-size="13" lengthAdjust="spacing" textLength="62.6323" x="1224.08" y="444.7038">Receives:</text><text fill="#000000" font-family="sans-serif" font-size="13" lengthAdjust="spacing" textLength="108.9575" x="1224.08" y="459.8366">F/B/L/R Direction</text><text fill="#000000" font-family="sans-serif" font-size="13" lengthAdjust="spacing" textLength="128.083" x="1224.08" y="474.9694">0-9, q Speed Levels</text><text fill="#000000" font-family="sans-serif" font-size="13" lengthAdjust="spacing" textLength="43.894" x="1224.08" y="490.1022">Sends:</text><text fill="#000000" font-family="sans-serif" font-size="13" lengthAdjust="spacing" textLength="155.5493" x="1224.08" y="505.235">Speed, Distance, Status</text></g><g class="entity" data-qualified-name="GMN37" data-source-line="80" id="ent0038"><path d="M6,427.6369 L6,513.3009 A0,0 0 0 0 6,513.3009 L142.7178,513.3009 A0,0 0 0 0 142.7178,513.3009 L142.7178,437.6369 L132.7178,427.6369 L78.36,427.6369 L74.36,312.6669 L70.36,427.6369 L6,427.6369 A0,0 0 0 0 6,427.6369" fill="#FFFDE7" style="stroke:#F57F17;stroke-width:0.5;"/><path d="M132.7178,427.6369 L132.7178,437.6369 L142.7178,437.6369 L132.7178,427.6369" fill="#FFFDE7" style="stroke:#F57F17;stroke-width:0.5;"/><text fill="#000000" font-family="sans-serif" font-size="13" lengthAdjust="spacing" textLength="59.0713" x="12" y="444.7038">Displays:</text><text fill="#000000" font-family="sans-serif" font-size="13" lengthAdjust="spacing" textLength="40.752" x="12" y="459.8366">Speed</text><text fill="#000000" font-family="sans-serif" font-size="13" lengthAdjust="spacing" textLength="78" x="12" y="474.9694">Light Status</text><text fill="#000000" font-family="sans-serif" font-size="13" lengthAdjust="spacing" textLength="83.4336" x="12" y="490.1022">Safety Alerts</text><text fill="#000000" font-family="sans-serif" font-size="13" lengthAdjust="spacing" textLength="115.7178" x="12" y="505.235">Obstacle Warning</text></g><!--link BATT to PWR--><g class="link" data-entity-1="ent0002" data-entity-2="ent0003" data-link-type="dependency" data-source-line="17" id="lnk4"><path d="M1184.36,97.1669 C1184.36,115.9569 1184.36,134.9869 1184.36,151.5369" fill="none" id="BATT-to-PWR" style="stroke:#181818;stroke-width:1;"/><polygon fill="#181818" points="1184.36,157.5369,1188.36,148.5369,1184.36,152.5369,1180.36,148.5369,1184.36,157.5369" style="stroke:#181818;stroke-width:1;"/></g><!--link BT to MCU--><g class="link" data-entity-1="ent0006" data-entity-2="ent0005" data-link-type="dependency" data-source-line="24" id="lnk7"><path d="M1270.65,320.8769 C1259.73,329.7069 1248.01,340.0469 1238.36,350.6369 C1221.33,369.3069 1227.49,383.7769 1206.36,397.6369 C1156.71,430.2169 999.3842,451.5925 904.7842,461.9725" fill="none" id="BT-to-MCU" style="stroke:#181818;stroke-width:1;"/><polygon fill="#181818" points="898.82,462.6269,908.2026,465.6214,903.7902,462.0815,907.33,457.6691,898.82,462.6269" style="stroke:#181818;stroke-width:1;"/><text fill="#000000" font-family="sans-serif" font-size="13" lengthAdjust="spacing" textLength="57.2368" x="1239.9059" y="363.7038">TX -&gt; 11</text><text fill="#000000" font-family="sans-serif" font-size="13" lengthAdjust="spacing" textLength="58.3286" x="1239.36" y="378.8366">RX -&gt; 10</text><text fill="#000000" font-family="sans-serif" font-size="13" lengthAdjust="spacing" textLength="4.1323" x="1266.4581" y="393.9694">&#160;</text></g><!--link LCD to MCU--><g class="link" data-entity-1="ent0008" data-entity-2="ent0005" data-link-type="dependency" data-source-line="28" id="lnk9"><path d="M103.62,312.8169 C144.53,336.3369 221.85,377.5469 293.36,397.6369 C456.74,443.5269 650.62,460.081 754.01,466.051" fill="none" id="LCD-to-MCU" style="stroke:#181818;stroke-width:1;"/><polygon fill="#181818" points="760,466.3969,751.2456,461.8847,755.0083,466.1086,750.7844,469.8714,760,466.3969" style="stroke:#181818;stroke-width:1;"/><text fill="#000000" font-family="sans-serif" font-size="13" lengthAdjust="spacing" textLength="68.1675" x="294.36" y="371.2038">SDA -&gt; A4</text><text fill="#000000" font-family="sans-serif" font-size="13" lengthAdjust="spacing" textLength="65.584" x="295.6517" y="386.3366">SCL -&gt; A5</text></g><!--link ULTRA to MCU--><g class="link" data-entity-1="ent0011" data-entity-2="ent0005" data-link-type="dependency" data-source-line="38" id="lnk15"><path d="M449.55,312.9169 C477.63,335.4169 529.45,374.2869 579.36,397.6369 C637.65,424.9069 702.6581,442.752 754.0281,454.382" fill="none" id="ULTRA-to-MCU" style="stroke:#181818;stroke-width:1;"/><polygon fill="#181818" points="759.88,455.7069,751.9854,449.8183,755.0034,454.6028,750.2189,457.6209,759.88,455.7069" style="stroke:#181818;stroke-width:1;"/><text fill="#000000" font-family="sans-serif" font-size="13" lengthAdjust="spacing" textLength="65.5396" x="580.36" y="371.2038">Trig -&gt; 12</text><text fill="#000000" font-family="sans-serif" font-size="13" lengthAdjust="spacing" textLength="63.6733" x="581.2931" y="386.3366">Echo -&gt; 8</text></g><!--link LDR to MCU--><g class="link" data-entity-1="ent0012" data-entity-2="ent0005" data-link-type="dependency" data-source-line="39" id="lnk16"><path d="M610.97,312.7269 C632.98,334.0069 672.29,370.5469 709.36,397.6369 C732.3,414.3969 754.1211,427.859 776.7211,440.779" fill="none" id="LDR-to-MCU" style="stroke:#181818;stroke-width:1;"/><polygon fill="#181818" points="781.93,443.7569,776.1019,435.8175,777.5893,441.2754,772.1314,442.7627,781.93,443.7569" style="stroke:#181818;stroke-width:1;"/><text fill="#000000" font-family="sans-serif" font-size="13" lengthAdjust="spacing" textLength="17.1641" x="710.36" y="378.7038">A0</text></g><!--link BELT to MCU--><g class="link" data-entity-1="ent0013" data-entity-2="ent0005" data-link-type="dependency" data-source-line="40" id="lnk17"><path d="M742.71,312.9469 C736.96,334.1269 730.55,370.2569 743.36,397.6369 C752.18,416.4869 763.8051,428.5975 779.9851,440.4175" fill="none" id="BELT-to-MCU" style="stroke:#181818;stroke-width:1;"/><polygon fill="#181818" points="784.83,443.9569,779.9222,435.4179,780.7926,441.0074,775.2031,441.8778,784.83,443.9569" style="stroke:#181818;stroke-width:1;"/><text fill="#000000" font-family="sans-serif" font-size="13" lengthAdjust="spacing" textLength="125.9883" x="744.36" y="378.7038">A1 (INPUT_PULLUP)</text></g><!--link DOOR to MCU--><g class="link" data-entity-1="ent0014" data-entity-2="ent0005" data-link-type="dependency" data-source-line="41" id="lnk18"><path d="M914.99,312.6669 C906.07,333.2669 890.23,368.5269 874.36,397.6369 C865.76,413.3969 858.3992,425.4093 849.6392,438.9493" fill="none" id="DOOR-to-MCU" style="stroke:#181818;stroke-width:1;"/><polygon fill="#181818" points="846.38,443.9869,854.6272,438.6032,849.096,439.7889,847.9104,434.2576,846.38,443.9869" style="stroke:#181818;stroke-width:1;"/><text fill="#000000" font-family="sans-serif" font-size="13" lengthAdjust="spacing" textLength="125.9883" x="898.36" y="378.7038">A2 (INPUT_PULLUP)</text></g><!--link HEAD to MCU--><g class="link" data-entity-1="ent0019" data-entity-2="ent0005" data-link-type="dependency" data-source-line="45" id="lnk20"><path d="M1135.41,320.9169 C1117.41,349.4469 1089.69,392.3269 1082.36,397.6369 C1028.1,436.9469 958.8448,453.9147 904.5548,461.9847" fill="none" id="HEAD-to-MCU" style="stroke:#181818;stroke-width:1;"/><polygon fill="#181818" points="898.62,462.8669,908.1103,465.5001,903.5657,462.1317,906.9341,457.5871,898.62,462.8669" style="stroke:#181818;stroke-width:1;"/><text fill="#000000" font-family="sans-serif" font-size="13" lengthAdjust="spacing" textLength="82.0815" x="1115.36" y="378.7038">D2 (ON/OFF)</text></g><!--link MCU to DRIVER--><g class="link" data-entity-1="ent0005" data-entity-2="ent0021" data-link-type="dependency" data-source-line="54" id="lnk25"><path d="M887.47,443.6869 C991.68,399.5069 1216.15,321.9269 1394.86,382.0569 C1430.96,394.2069 1460.4623,418.2697 1482.2523,439.5997" fill="none" id="MCU-to-DRIVER" style="stroke:#181818;stroke-width:1;"/><polygon fill="#181818" points="1486.54,443.7969,1482.9066,434.6427,1482.967,440.2993,1477.3104,440.3596,1486.54,443.7969" style="stroke:#181818;stroke-width:1;"/></g><!--link DRIVER to ML--><g class="link" data-entity-1="ent0021" data-entity-2="ent0023" data-link-type="dependency" data-source-line="56" id="lnk26"><path d="M1493.79,496.9969 C1474.25,525.4069 1446.6007,565.5837 1429.6907,590.1637" fill="none" id="DRIVER-to-ML" style="stroke:#181818;stroke-width:1;"/><polygon fill="#181818" points="1426.29,595.1069,1434.6865,589.9592,1429.1239,590.9875,1428.0956,585.4249,1426.29,595.1069" style="stroke:#181818;stroke-width:1;"/></g><!--link DRIVER to MR--><g class="link" data-entity-1="ent0021" data-entity-2="ent0024" data-link-type="dependency" data-source-line="57" id="lnk27"><path d="M1523.31,496.9969 C1536.61,525.4069 1555.1974,565.0923 1566.6974,589.6723" fill="none" id="DRIVER-to-MR" style="stroke:#181818;stroke-width:1;"/><polygon fill="#181818" points="1569.24,595.1069,1569.0491,585.2599,1567.1211,590.578,1561.803,588.6501,1569.24,595.1069" style="stroke:#181818;stroke-width:1;"/></g><!--link PWR to MCU--><g class="link" data-entity-1="ent0003" data-entity-2="ent0005" data-link-type="dependency" data-source-line="59" id="lnk28"><path d="M1133.7,194.6069 C1114.6,203.5069 1094.16,216.1169 1080.36,233.1869 C1032.49,292.3969 1084.66,342.3069 1032.36,397.6369 C997.56,434.4469 948.6143,451.2443 904.7043,459.9943" fill="none" id="PWR-to-MCU" style="stroke:#181818;stroke-width:1;"/><polygon fill="#181818" points="898.82,461.1669,908.4282,463.3309,903.7236,460.1897,906.8647,455.4851,898.82,461.1669" style="stroke:#181818;stroke-width:1;"/><text fill="#000000" font-family="sans-serif" font-size="13" lengthAdjust="spacing" textLength="4.6909" x="1081.36" y="298.9038">-</text></g><!--link PWR to DRIVER--><g class="link" data-entity-1="ent0003" data-entity-2="ent0021" data-link-type="dependency" data-source-line="60" id="lnk29"><path d="M1259.31,181.8669 C1302.84,188.1169 1356.4,202.1069 1394.36,233.1869 C1462.71,289.1569 1493.1202,389.1977 1504.6302,437.9077" fill="none" id="PWR-to-DRIVER" style="stroke:#181818;stroke-width:1;"/><polygon fill="#181818" points="1506.01,443.7469,1507.8331,434.0682,1504.8602,438.8809,1500.0475,435.9079,1506.01,443.7469" style="stroke:#181818;stroke-width:1;"/><text fill="#000000" font-family="sans-serif" font-size="13" lengthAdjust="spacing" textLength="64.8857" x="1469.36" y="298.9038">Motor Vcc</text></g><!--link PWR to BT--><g class="link" data-entity-1="ent0003" data-entity-2="ent0006" data-link-type="dependency" data-source-line="61" id="lnk30"><path d="M1202.47,194.4569 C1222.65,213.8469 1251.135,241.2183 1274.265,263.4583" fill="none" id="PWR-to-BT" style="stroke:#181818;stroke-width:1;"/><polygon fill="#181818" points="1278.59,267.6169,1274.8749,258.4956,1274.9858,264.1514,1269.33,264.2623,1278.59,267.6169" style="stroke:#181818;stroke-width:1;"/></g><!--link PWR to LCD--><g class="link" data-entity-1="ent0003" data-entity-2="ent0008" data-link-type="dependency" data-source-line="62" id="lnk31"><path d="M1109.48,178.6069 C887.56,183.6069 243.27,200.7769 154.36,233.1869 C129.71,242.1769 110.6453,257.3494 95.5953,271.6794" fill="none" id="PWR-to-LCD" style="stroke:#181818;stroke-width:1;"/><polygon fill="#181818" points="91.25,275.8169,100.5262,272.5076,94.8711,272.369,95.0097,266.7139,91.25,275.8169" style="stroke:#181818;stroke-width:1;"/></g><!--link DIP to MCU--><g class="link" data-entity-1="ent0032" data-entity-2="ent0005" data-link-type="dependency" data-source-line="67" id="lnk33"><path d="M280.77,312.8669 C297.13,320.3669 316.59,329.0869 334.36,336.4869 C404.63,365.7769 421.37,376.0069 494.36,397.6369 C584.75,424.4269 685.7239,444.5193 754.0239,456.7493" fill="none" id="DIP-to-MCU" style="stroke:#181818;stroke-width:1;"/><polygon fill="#181818" points="759.93,457.8069,751.7759,452.2832,755.0083,456.9256,750.3659,460.1579,759.93,457.8069" style="stroke:#181818;stroke-width:1;"/></g><!--link BT to GMN34--><g class="link" data-entity-1="ent0006" data-entity-2="ent0035" data-link-type="association" data-source-line="72" id="lnk36"><path d="M1305.92,320.9369 C1306.1,330.2869 1306.27,340.9369 1306.36,350.6369 C1306.59,376.1169 1306.6,404.6669 1306.54,427.3969" fill="none" id="BT-GMN34" style="stroke:#181818;stroke-width:1;stroke-dasharray:7,7;"/></g><!--SRC=[ZLLjRwCu4FxkNp7QVhYkr6mXJRP9fJi9C6mZ4K2yj7TIf9DBt0ILsZtZj1kTzh_V67BPaBJIycdiUJppp3Fsq3nLueKfzWoAbvg9LStXNmBWil9ffUH6B3rPImLdmIXmWy1uf5fojTkrwEZQiN4txQ1AS0L3Y_mWpJwmaFgZc450_UlZcC7uEh2lUo6QDLlAjqgiu97L3IT4Lng9EijN9ag-1AggLwu6JjDKZJPRa6qRpPyRGdwMzSbbMdErXGHvBCJeEzYJhsCBpktHbydTvq_06d2TF3UyVCkt3eycyWqBenXTLGyRNKdHmfFx5D4JrwKM8UtPmU0FizlBwwZbfX8IYYY6z6eXpkUi4k19ePMiQwwwr7ElG9L-4F8R_7xyWHVFvqKqyvny5aUd_bwLzOPhAVKQvdAvgVb2t7e3QzoLXyNvLy4me0JD0MegaA_9V0Fvdu2sRIz4sbdMGhnFXiwo97J-ElMSSB6_VXz2w54udmszhaopElCdmTYV4cFtIMJKCRcTqK9aNjYQu_T9P7wKnMds2oGoBXgfcZQxETNUkwatQk_a0QwejMAD55K9g5YMMgFsI17cgTD7XZJTYTkLHDE-F-DCWyjh3LtkJdi_pFimAl6wXx9yEeJHE4xDBMZJ7hT8LQksDSE5yCkrDFQ463Pzd6CHa-ruryOsH4cH_vqKOLWadud9TGmQ7eFULJ-SVRlDPz6tNv3_bhDbNQtMkbc8qATjaRU-GzjdvhbNf5tqML1a4KUNSH1yaD_nykA3jt12O2urwjoD2AGmd4uYe1jMWxTcGl2wapsTtVduc7qx60V-oV7kzipZt5ovCsfx8tzwV7z2_gYXIvQmgklcFEnZKYF42QXjkAbye8mVPUZe4BAZPQOAXZfSeTDCdy5Uiy5-lOFTxFBSbUNUvUPx4n_V-zh6YH7M2StGIUB8Z_8FNzcXJdIMGFPMwN8D4xXdsqvMt3mBhlnnC2R6FcWpmQ_zDJn8hUKpo4V3BkKbnqOrDoIuT2_3onI7hac24vTOW-a5_0FP2yUH7_9NNZS4NyuImUtUHJkWpVY_W4mplMa8Ujl_pqagKpsYNsgs_Vyu2Tlcx4vcx97hBJWudtL3uWSCN6APzqm9_0_j0_y7]--></g></svg>