<svg xmlns="http://www.w3.org/2000/svg" xmlns:xlink="http://www.w3.org/1999/xlink" contentStyleType="text/css" data-diagram-type="DESCRIPTION" height="621px" preserveAspectRatio="none" style="width:883px;height:621px;background:#FFFFFF;" version="1.1" viewBox="0 0 883 621" width="883px" zoomAndPan="magnify"><title>Advanced Driver-Assistance Systems</title><defs/><g><g class="title" data-source-line="1"><text fill="#000000" font-family="sans-serif" font-size="14" font-weight="bold" lengthAdjust="spacing" textLength="292.8037" x="288.2191" y="22.9951">Advanced Driver-Assistance Systems</text></g><!--entity Phone--><g class="entity" data-entity="Phone" data-source-line="8" data-uid="ent0002" id="entity_Phone"><rect fill="#F1F1F1" height="52.5938" rx="2.5" ry="2.5" style="stroke:#181818;stroke-width:0.5;" width="167.7998" x="318.46" y="44.2969"/><text fill="#000000" font-family="sans-serif" font-size="14" lengthAdjust="spacing" textLength="147.7998" x="328.46" y="67.292">Connected Bluetooth</text><text fill="#000000" font-family="sans-serif" font-size="14" lengthAdjust="spacing" textLength="47.8789" x="332.9102" y="83.5889">Device</text></g><!--entity BT--><g class="entity" data-entity="BT" data-source-line="9" data-uid="ent0003" id="entity_BT"><rect fill="#F1F1F1" height="52.5938" rx="2.5" ry="2.5" style="stroke:#181818;stroke-width:0.5;" width="143.3203" x="330.7" y="173.8869"/><text fill="#000000" font-family="sans-serif" font-size="14" lengthAdjust="spacing" textLength="43.1689" x="340.7" y="196.882">HC-05</text><text fill="#000000" font-family="sans-serif" font-size="14" lengthAdjust="spacing" textLength="123.3203" x="340.7" y="213.1789">Bluetooth Module</text></g><!--entity Arduino--><g class="entity" data-entity="Arduino" data-source-line="10" data-uid="ent0004" id="entity_Arduino"><rect fill="#F1F1F1" height="52.5938" rx="2.5" ry="2.5" style="stroke:#181818;stroke-width:0.5;" width="113.0098" x="345.85" y="303.4869"/><text fill="#000000" font-family="sans-serif" font-size="14" lengthAdjust="spacing" textLength="86.5566" x="355.85" y="326.482">Arduino Uno</text><text fill="#000000" font-family="sans-serif" font-size="14" lengthAdjust="spacing" textLength="93.0098" x="355.85" y="342.7789">ATmega328P</text></g><!--entity L298--><g class="entity" data-entity="L298" data-source-line="11" data-uid="ent0005" id="entity_L298"><rect fill="#F1F1F1" height="36.2969" rx="2.5" ry="2.5" style="stroke:#181818;stroke-width:0.5;" width="146.957" x="641.88" y="441.2269"/><text fill="#000000" font-family="sans-serif" font-size="14" lengthAdjust="spacing" textLength="126.957" x="651.88" y="464.222">L298 Motor Driver</text></g><!--entity Motors--><g class="entity" data-entity="Motors" data-source-line="12" data-uid="ent0006" id="entity_Motors"><rect fill="#F1F1F1" height="52.5938" rx="2.5" ry="2.5" style="stroke:#181818;stroke-width:0.5;" width="114.4385" x="658.14" y="562.6769"/><text fill="#000000" font-family="sans-serif" font-size="14" lengthAdjust="spacing" textLength="72.7549" x="668.14" y="585.672">DC Motors</text><text fill="#000000" font-family="sans-serif" font-size="14" lengthAdjust="spacing" textLength="94.4385" x="668.14" y="601.9689">(Left &amp; Right)</text></g><!--entity Ultrasonic--><g class="entity" data-entity="Ultrasonic" data-source-line="13" data-uid="ent0007" id="entity_Ultrasonic"><rect fill="#F1F1F1" height="52.5938" rx="2.5" ry="2.5" style="stroke:#181818;stroke-width:0.5;" width="142.7188" x="7" y="433.0769"/><text fill="#000000" font-family="sans-serif" font-size="14" lengthAdjust="spacing" textLength="61.7832" x="17" y="456.072">HC-SR04</text><text fill="#000000" font-family="sans-serif" font-size="14" lengthAdjust="spacing" textLength="122.7188" x="17" y="472.3689">Ultrasonic Sensor</text></g><!--entity LDR--><g class="entity" data-entity="LDR" data-source-line="14" data-uid="ent0008" id="entity_LDR"><rect fill="#F1F1F1" height="52.5938" rx="2.5" ry="2.5" style="stroke:#181818;stroke-width:0.5;" width="123.3457" x="184.69" y="433.0769"/><text fill="#000000" font-family="sans-serif" font-size="14" lengthAdjust="spacing" textLength="67.6963" x="194.69" y="456.072">LDR Light</text><text fill="#000000" font-family="sans-serif" font-size="14" lengthAdjust="spacing" textLength="103.3457" x="194.69" y="472.3689">Sensor Module</text></g><!--entity LED--><g class="entity" data-entity="LED" data-source-line="15" data-uid="ent0009" id="entity_LED"><rect fill="#F1F1F1" height="36.2969" rx="2.5" ry="2.5" style="stroke:#181818;stroke-width:0.5;" width="119.5107" x="342.6" y="441.2269"/><text fill="#000000" font-family="sans-serif" font-size="14" lengthAdjust="spacing" textLength="99.5107" x="352.6" y="464.222">Headlight LED</text></g><!--entity LCD--><g class="entity" data-entity="LCD" data-source-line="16" data-uid="ent0010" id="entity_LCD"><rect fill="#F1F1F1" height="52.5938" rx="2.5" ry="2.5" style="stroke:#181818;stroke-width:0.5;" width="109.9404" x="497.39" y="433.0769"/><text fill="#000000" font-family="sans-serif" font-size="14" lengthAdjust="spacing" textLength="67.8125" x="507.39" y="456.072">16x2 LCD</text><text fill="#000000" font-family="sans-serif" font-size="14" lengthAdjust="spacing" textLength="89.9404" x="507.39" y="472.3689">I2C Interface</text></g><!--entity Battery--><g class="entity" data-entity="Battery" data-source-line="17" data-uid="ent0011" id="entity_Battery"><rect fill="#F1F1F1" height="52.5938" rx="2.5" ry="2.5" style="stroke:#181818;stroke-width:0.5;" width="139.6221" x="554.55" y="173.8869"/><text fill="#000000" font-family="sans-serif" font-size="14" lengthAdjust="spacing" textLength="89.0928" x="564.55" y="196.882">Battery Pack</text><text fill="#000000" font-family="sans-serif" font-size="14" lengthAdjust="spacing" textLength="119.6221" x="564.55" y="213.1789">(4x 18650 Li-ion)</text></g><!--link Phone to BT--><g class="link" data-entity-1="Phone" data-entity-2="BT" data-link-type="dependency" data-source-line="20" data-uid="lnk12" id="link_Phone_BT"><path d="M402.36,97.1069 C402.36,119.3669 402.36,145.4769 402.36,167.7169" fill="none" id="Phone-to-BT" style="stroke:#181818;stroke-width:1;"/><polygon fill="#181818" points="402.36,173.7169,406.36,164.7169,402.36,168.7169,398.36,164.7169,402.36,173.7169" style="stroke:#181818;stroke-width:1;"/><text fill="#000000" font-family="sans-serif" font-size="13" lengthAdjust="spacing" textLength="140.8291" x="403.36" y="139.9538">Bluetooth Commands</text></g><!--link BT to Arduino--><g class="link" data-entity-1="BT" data-entity-2="Arduino" data-link-type="dependency" data-source-line="21" data-uid="lnk13" id="link_BT_Arduino"><path d="M402.36,226.7069 C402.36,248.9569 402.36,275.0769 402.36,297.3169" fill="none" id="BT-to-Arduino" style="stroke:#181818;stroke-width:1;"/><polygon fill="#181818" points="402.36,303.3169,406.36,294.3169,402.36,298.3169,398.36,294.3169,402.36,303.3169" style="stroke:#181818;stroke-width:1;"/><text fill="#000000" font-family="sans-serif" font-size="13" lengthAdjust="spacing" textLength="90.2256" x="403.36" y="269.5538">Serial (TX/RX)</text></g><!--link Arduino to L298--><g class="link" data-entity-1="Arduino" data-entity-2="L298" data-link-type="dependency" data-source-line="23" data-uid="lnk14" id="link_Arduino_L298"><path d="M459.17,336.5769 C507.65,343.3069 578.09,357.3969 633.36,386.0769 C659.97,399.8969 680.9096,419.7795 696.1496,436.3595" fill="none" id="Arduino-to-L298" style="stroke:#181818;stroke-width:1;"/><polygon fill="#181818" points="700.21,440.7769,697.0644,431.4439,696.8264,437.0957,691.1745,436.8577,700.21,440.7769" style="stroke:#181818;stroke-width:1;"/></g><!--link L298 to Motors--><g class="link" data-entity-1="L298" data-entity-2="Motors" data-link-type="dependency" data-source-line="24" data-uid="lnk15" id="link_L298_Motors"><path d="M715.36,477.8469 C715.36,499.6869 715.36,531.2469 715.36,556.3369" fill="none" id="L298-to-Motors" style="stroke:#181818;stroke-width:1;"/><polygon fill="#181818" points="715.36,562.3369,719.36,553.3369,715.36,557.3369,711.36,553.3369,715.36,562.3369" style="stroke:#181818;stroke-width:1;"/><text fill="#000000" font-family="sans-serif" font-size="13" lengthAdjust="spacing" textLength="158.8818" x="716.36" y="528.7438">Motor Power &amp; Direction</text></g><!--link Arduino to Ultrasonic--><g class="link" data-entity-1="Arduino" data-entity-2="Ultrasonic" data-link-type="dependency" data-source-line="26" data-uid="lnk16" id="link_Arduino_Ultrasonic"><path d="M345.53,333.8169 C267.18,339.1769 131.62,353.0469 96.36,386.0769 C83.71,397.9269 79.8515,411.2062 78.5915,426.8562" fill="none" id="Arduino-to-Ultrasonic" style="stroke:#181818;stroke-width:1;"/><polygon fill="#181818" points="78.11,432.8369,82.8194,424.1869,78.5113,427.853,74.8452,423.5449,78.11,432.8369" style="stroke:#181818;stroke-width:1;"/><text fill="#000000" font-family="sans-serif" font-size="13" lengthAdjust="spacing" textLength="25.1494" x="97.36" y="399.1438">Trig</text></g><!--link Ultrasonic to Arduino--><g class="link" data-entity-1="Ultrasonic" data-entity-2="Arduino" data-link-type="dependency" data-source-line="27" data-uid="lnk17" id="link_Ultrasonic_Arduino"><path d="M138.51,432.6769 C171.91,418.5869 214.29,400.9969 252.36,386.0769 C282.98,374.0769 311.7504,363.3851 339.8904,353.1651" fill="none" id="Ultrasonic-to-Arduino" style="stroke:#181818;stroke-width:1;"/><polygon fill="#181818" points="345.53,351.1169,335.7052,350.4295,340.8304,352.8237,338.4361,357.9489,345.53,351.1169" style="stroke:#181818;stroke-width:1;"/><text fill="#000000" font-family="sans-serif" font-size="13" lengthAdjust="spacing" textLength="31.5542" x="253.36" y="399.1438">Echo</text></g><!--link Arduino to LDR--><g class="link" data-entity-1="Arduino" data-entity-2="LDR" data-link-type="dependency" data-source-line="29" data-uid="lnk18" id="link_Arduino_LDR"><path d="M353.22,356.5769 C338.79,365.1169 323.4,375.2369 310.36,386.0769 C293.73,399.9069 281.3852,413.4934 269.4852,428.1934" fill="none" id="Arduino-to-LDR" style="stroke:#181818;stroke-width:1;"/><polygon fill="#181818" points="265.71,432.8569,274.4818,428.3785,268.856,428.9707,268.2638,423.3449,265.71,432.8569" style="stroke:#181818;stroke-width:1;"/><text fill="#000000" font-family="sans-serif" font-size="13" lengthAdjust="spacing" textLength="82.2974" x="311.36" y="399.1438">Analog Read</text></g><!--link Arduino to LED--><g class="link" data-entity-1="Arduino" data-entity-2="LED" data-link-type="dependency" data-source-line="30" data-uid="lnk19" id="link_Arduino_LED"><path d="M402.36,356.2969 C402.36,381.4569 402.36,413.2269 402.36,435.0769" fill="none" id="Arduino-to-LED" style="stroke:#181818;stroke-width:1;"/><polygon fill="#181818" points="402.36,441.0769,406.36,432.0769,402.36,436.0769,398.36,432.0769,402.36,441.0769" style="stroke:#181818;stroke-width:1;"/><text fill="#000000" font-family="sans-serif" font-size="13" lengthAdjust="spacing" textLength="45.1572" x="403.36" y="399.1438">Output</text></g><!--link Arduino to LCD--><g class="link" data-entity-1="Arduino" data-entity-2="LCD" data-link-type="dependency" data-source-line="32" data-uid="lnk20" id="link_Arduino_LCD"><path d="M432.35,356.2969 C458.43,378.4769 491.4493,406.5699 517.5893,428.7999" fill="none" id="Arduino-to-LCD" style="stroke:#181818;stroke-width:1;"/><polygon fill="#181818" points="522.16,432.6869,517.8953,423.8092,518.3511,429.4477,512.7126,429.9035,522.16,432.6869" style="stroke:#181818;stroke-width:1;"/><text fill="#000000" font-family="sans-serif" font-size="13" lengthAdjust="spacing" textLength="138.0425" x="486.36" y="399.1438">I2C (SDA A4, SCL A5)</text></g><!--link Battery to Arduino--><g class="link" data-entity-1="Battery" data-entity-2="Arduino" data-link-type="dependency" data-source-line="34" data-uid="lnk21" id="link_Battery_Arduino"><path d="M581.63,226.9269 C558.3,240.8769 528.85,258.3169 502.36,273.4869 C485.23,283.2969 471.5648,290.9309 454.8348,300.1509" fill="none" id="Battery-to-Arduino" style="stroke:#181818;stroke-width:1;"/><polygon fill="#181818" points="449.58,303.0469,459.3929,302.2061,453.959,300.6336,455.5316,295.1997,449.58,303.0469" style="stroke:#181818;stroke-width:1;"/><text fill="#000000" font-family="sans-serif" font-size="13" lengthAdjust="spacing" textLength="88.2007" x="529.36" y="269.5538">Power Supply</text></g><!--link Battery to L298--><g class="link" data-entity-1="Battery" data-entity-2="L298" data-link-type="dependency" data-source-line="35" data-uid="lnk22" id="link_Battery_L298"><path d="M633.42,226.7869 C651.89,279.0069 691.5085,390.9705 707.2085,435.3405" fill="none" id="Battery-to-L298" style="stroke:#181818;stroke-width:1;"/><polygon fill="#181818" points="709.21,440.9969,709.9787,431.1781,707.5421,436.2833,702.4369,433.8467,709.21,440.9969" style="stroke:#181818;stroke-width:1;"/><text fill="#000000" font-family="sans-serif" font-size="13" lengthAdjust="spacing" textLength="81.4658" x="679.36" y="334.3538">Motor Power</text></g><!--SRC=[NPB1QkCm48RlVegXXzqKDZJD9YKRw89Z1xRWPOETGW- -25jnH9LHaEIqUViTMN4ZnmTZpV_DQ6P-Ms4bXxW-CQnu3QaM9wx7iJ72M1U2ucmiFvWe-WxFxe72dYcZ-uxCky0Zq-m0bJeS5NAqNjQyelH6yW0nUrQh3u4Dx9Wq_5enwNFDfUnNCRXB52BLejPMikLMARil4L9-4XM_0sPWioSopFYJZ2Vp4hzm-AlgLdfujGt9MDUjG0Mlg4gCjmVUi9_JnQOZBrg8PzDV2ofcbRwigGDTDAJIn3Ecn576TnQ-GIwQlRtlQ2_Tj5laarc9hz9gPXIA2WgEHldor-YWbJI7p5KjqRFXa2GEBk2ibew5R9rwO9s6mEFJvnIo92tnPPh02rgkT-ooNGg7w8fPKi-mOTKxpJVxXCV5qtn2lOo5GZ_YXGdjxImaeFUtymp6uzza22olphe_uS2mDX75dTmxjAILQC4aZBPl3_dRVHJrYgCwOwBkxOv-nvJZlTge3wx9XLHetyKmELZx4hPQD54G6VQmhlRgvcRoOGanCgaQo6dHGtMTalgljSVMtkGbJd7h7XLf3F7i1nH91l6S9kjtFBpRJr6qnwCy3v1kxC6i_m40]--></g></svg>